HIERARCHY
ROOT joint_Root
{
	OFFSET 0.0 0.0 0.0
	CHANNELS 6 Xposition Yposition Zposition Zrotation Xrotation Yrotation 
	JOINT Hips
	{
		OFFSET -17.1583 93.1646 452.98
		CHANNELS 6 Xposition Yposition Zposition Zrotation Xrotation Yrotation 
		JOINT Spine
		{
			OFFSET 15.7357 0.0 0.0
			CHANNELS 6 Xposition Yposition Zposition Zrotation Xrotation Yrotation 
			JOINT Chest
			{
				OFFSET 8.98455 -0.406207 0.0
				CHANNELS 6 Xposition Yposition Zposition Zrotation Xrotation Yrotation 
				JOINT Neck
				{
					OFFSET 16.3773 0.0 0.0
					CHANNELS 6 Xposition Yposition Zposition Zrotation Xrotation Yrotation 
					JOINT Head
					{
						OFFSET 6.45672 0.0 0.0
						CHANNELS 6 Xposition Yposition Zposition Zrotation Xrotation Yrotation 
						End Site
						{
							OFFSET 0.0 0.0 0.0
						}
					}
				}
				JOINT Shoulder_L
				{
					OFFSET 12.9942 -0.242716 4.98039
					CHANNELS 6 Xposition Yposition Zposition Zrotation Xrotation Yrotation 
					JOINT UpperArm_L
					{
						OFFSET 5.34809 0.0 0.0
						CHANNELS 6 Xposition Yposition Zposition Zrotation Xrotation Yrotation 
						JOINT LowerArm_L
						{
							OFFSET 24.3286 1.87007e-05 0.0
							CHANNELS 6 Xposition Yposition Zposition Zrotation Xrotation Yrotation 
							JOINT Hand_L
							{
								OFFSET 22.2916 0.0 0.0
								CHANNELS 6 Xposition Yposition Zposition Zrotation Xrotation Yrotation 
								End Site
								{
									OFFSET 0.0 0.0 0.0
								}
							}
						}
					}
				}
				JOINT Shoulder_R
				{
					OFFSET 12.9945 -0.242716 -4.98039
					CHANNELS 6 Xposition Yposition Zposition Zrotation Xrotation Yrotation 
					JOINT UpperArm_R
					{
						OFFSET -5.34813 0.0 0.0
						CHANNELS 6 Xposition Yposition Zposition Zrotation Xrotation Yrotation 
						JOINT LowerArm_R
						{
							OFFSET -24.3289 0.000322201 0.0
							CHANNELS 6 Xposition Yposition Zposition Zrotation Xrotation Yrotation 
							JOINT Hand_R
							{
								OFFSET -22.2915 -0.000108084 0.0
								CHANNELS 6 Xposition Yposition Zposition Zrotation Xrotation Yrotation 
								End Site
								{
									OFFSET 0.0 0.0 0.0
								}
							}
						}
					}
				}
			}
		}
		JOINT UpperLeg_L
		{
			OFFSET -2.19248 -6.46944 0.0
			CHANNELS 6 Xposition Yposition Zposition Zrotation Xrotation Yrotation 
			JOINT LowerLeg_L
			{
				OFFSET 39.0811 0.0 -1.23785e-05
				CHANNELS 6 Xposition Yposition Zposition Zrotation Xrotation Yrotation 
				JOINT Foot_L
				{
					OFFSET 40.9854 0.0 -1.26872e-05
					CHANNELS 6 Xposition Yposition Zposition Zrotation Xrotation Yrotation 
					JOINT Toes_L
					{
						OFFSET 11.7543 0.0 0.0
						CHANNELS 6 Xposition Yposition Zposition Zrotation Xrotation Yrotation 
						End Site
						{
							OFFSET 0.0 0.0 0.0
						}
					}
				}
			}
		}
		JOINT UpperLeg_R
		{
			OFFSET -2.19251 6.46944 0.0
			CHANNELS 6 Xposition Yposition Zposition Zrotation Xrotation Yrotation 
			JOINT LowerLeg_R
			{
				OFFSET -39.0811 -0.00228153 -0.0401928
				CHANNELS 6 Xposition Yposition Zposition Zrotation Xrotation Yrotation 
				JOINT Foot_R
				{
					OFFSET -40.9854 0.0 0.0
					CHANNELS 6 Xposition Yposition Zposition Zrotation Xrotation Yrotation 
					JOINT Toes_R
					{
						OFFSET -11.7543 0.0 0.0
						CHANNELS 6 Xposition Yposition Zposition Zrotation Xrotation Yrotation 
						End Site
						{
							OFFSET 0.0 0.0 0.0
						}
					}
				}
			}
		}
	}
}
MOTION
Frames:	4
Frame Time:	0.0333333
0.000000 0.000000 0.000000 0.000000 0.000000 -0.000000 0.252603 80.613800 411.854000 -84.118100 4.846020 161.351000 15.735700 0.000005 -0.000001 91.458200 84.513200 -88.690800 8.984550 -0.406207 -0.000000 3.205950 0.168984 5.524110 16.377300 -0.000001 -0.000001 -6.989030 5.476000 -3.049800 6.456720 -0.000001 -0.000000 -1.780310 5.680690 -4.136580 12.994200 -0.242716 4.980390 -92.781300 8.871880 -72.515300 5.348090 -0.000007 -0.000001 -63.416400 -29.077000 14.246300 24.328600 0.000019 0.000005 43.356300 22.771200 -67.710100 22.291600 -0.000001 0.000005 46.297600 3.913960 25.435200 12.994500 -0.242716 -4.980390 88.718600 4.740210 -74.853900 -5.348130 -0.000001 -0.000004 -69.077700 1.595120 -1.859670 -24.328900 0.000322 -0.000009 -4.973330 -7.121300 -35.176000 -22.291500 -0.000108 -0.000004 57.658900 5.477840 -5.669300 -2.192480 -6.469440 -0.000000 -174.150000 -8.818180 -30.389400 39.081100 -0.000007 -0.000012 0.345833 -0.037245 83.851900 40.985400 -0.000006 -0.000013 -8.683930 11.431000 -39.605100 11.754300 -0.000000 0.000003 0.001595 0.033594 -15.214000 -2.192510 6.469440 -0.000001 -169.789000 -5.633480 146.704000 -39.081100 -0.002282 -0.040193 -0.007317 0.006062 60.041600 -40.985400 0.000008 0.000006 -3.076280 -3.270540 -96.226100 -11.754300 -0.000006 -0.000006 0.001278 0.142308 -10.802200
0.000000 0.000000 0.000000 0.000000 0.000000 -0.000000 0.076448 81.874300 404.686000 -86.443300 4.079910 161.747000 15.735700 0.000005 -0.000001 97.271500 84.451500 -95.340800 8.984550 -0.406207 -0.000000 3.223000 1.326530 3.820180 16.377300 -0.000001 -0.000001 -6.677900 4.432510 -2.858560 6.456720 -0.000001 -0.000000 -1.271540 3.516960 -4.156870 12.994200 -0.242716 4.980390 -92.649200 8.189650 -72.005200 5.348090 -0.000007 -0.000001 -55.888100 -32.963200 18.646100 24.328600 0.000019 0.000005 42.831400 21.874700 -68.104400 22.291600 -0.000001 0.000005 46.132800 3.895700 25.689400 12.994500 -0.242716 -4.980390 88.611100 5.163540 -74.922300 -5.348130 -0.000001 -0.000004 -68.179000 3.870120 -2.629610 -24.328900 0.000322 -0.000009 -1.377940 -1.074110 -52.333200 -22.291500 -0.000108 -0.000004 58.722800 5.449290 -4.615300 -2.192480 -6.469440 -0.000000 -176.782000 -6.825160 -40.045900 39.081100 -0.000007 -0.000012 0.203259 0.003701 91.040500 40.985400 -0.000006 -0.000013 -3.046770 1.850560 -50.550600 11.754300 -0.000000 0.000003 0.001427 0.029073 -15.397400 -2.192510 6.469440 -0.000001 -172.438000 -2.342400 154.650000 -39.081100 -0.002282 -0.040193 0.006525 -0.002385 54.087000 -40.985400 0.000008 0.000006 -3.382360 -0.893180 -93.809300 -11.754300 -0.000006 -0.000006 0.002248 0.057771 -14.229900
0.000000 0.000000 0.000000 0.000000 0.000000 -0.000000 -0.211778 84.117900 396.976000 -89.640000 2.104480 161.164000 15.735700 0.000005 -0.000001 100.006000 84.809700 -99.057700 8.984550 -0.406207 -0.000000 2.443950 1.758250 1.858220 16.377300 -0.000001 -0.000001 -6.410140 3.011870 -2.391030 6.456720 -0.000001 -0.000000 -0.674601 1.560430 -4.029890 12.994200 -0.242716 4.980390 -92.349400 7.231500 -71.947700 5.348090 -0.000007 -0.000001 -48.230100 -34.940700 22.427200 24.328600 0.000019 0.000005 43.526500 21.650300 -68.772500 22.291600 -0.000001 0.000005 45.120500 3.840270 26.452200 12.994500 -0.242716 -4.980390 88.691500 4.811330 -74.766400 -5.348130 -0.000001 -0.000004 -67.682400 3.713110 -3.778930 -24.328900 0.000322 -0.000009 2.050260 0.928675 -65.511900 -22.291500 -0.000108 -0.000004 57.432300 5.458280 -4.939280 -2.192480 -6.469440 -0.000000 -179.556000 -1.981680 -47.405600 39.081100 -0.000007 -0.000012 0.023773 0.000114 90.253900 40.985400 -0.000006 -0.000013 -0.554630 -3.729940 -60.613200 11.754300 -0.000000 0.000003 0.001996 0.046543 -14.688800 -2.192510 6.469440 -0.000001 -175.997000 2.530870 163.416000 -39.081100 -0.002282 -0.040193 0.015886 -0.013191 43.728000 -40.985400 0.000008 0.000006 -3.609700 1.458580 -86.807900 -11.754300 -0.000006 -0.000006 -0.005530 -0.066508 -19.279500
0.000000 0.000000 0.000000 0.000000 0.000000 -0.000000 -0.613830 86.887200 388.956000 -93.149900 0.686542 159.115000 15.735700 0.000005 -0.000001 108.741000 85.713300 -109.060000 8.984550 -0.406207 -0.000000 0.361564 2.774370 -0.646542 16.377300 -0.000001 -0.000001 -5.707260 1.370570 -1.845920 6.456720 -0.000001 -0.000000 -0.048320 -0.638270 -3.244480 12.994200 -0.242716 4.980390 -91.822700 5.659930 -72.116700 5.348090 -0.000007 -0.000001 -42.754900 -35.316600 25.149600 24.328600 0.000019 0.000005 45.455900 21.575500 -70.103300 22.291600 -0.000001 0.000005 45.529300 3.756920 27.577800 12.994500 -0.242716 -4.980390 88.855100 4.158860 -74.593100 -5.348130 -0.000001 -0.000004 -67.718900 2.153770 -3.422600 -24.328900 0.000322 -0.000009 5.611740 1.456790 -75.472900 -22.291500 -0.000108 -0.000004 56.376500 5.446870 -4.528760 -2.192480 -6.469440 -0.000000 178.526000 3.583150 -52.908200 39.081100 -0.000007 -0.000012 -0.003091 0.000414 82.505400 40.985400 -0.000006 -0.000013 -1.895000 -4.377360 -67.173800 11.754300 -0.000000 0.000003 0.002110 0.051152 -14.501900 -2.192510 6.469440 -0.000001 -179.628000 6.212370 170.677000 -39.081100 -0.002282 -0.040193 0.016966 -0.022072 31.767700 -40.985400 0.000008 0.000006 -2.351180 1.546010 -73.216000 -11.754300 -0.000006 -0.000006 -0.045655 -0.281909 -28.170900
